<?xml version="1.0" encoding="UTF-8"?>
<svg version="1.1" xmlns="http://www.w3.org/2000/svg" width="64" height="64">
<path d="M0 0 C1.9375 2.5 1.9375 2.5 3 5 C3.66 5.33 4.32 5.66 5 6 C5.88671875 8.328125 5.88671875 8.328125 6.6875 11.25 C6.95949219 12.20390625 7.23148438 13.1578125 7.51171875 14.140625 C8.02021617 17.11838589 7.78644021 19.10758903 7 22 C7.60062256 21.99476318 8.20124512 21.98952637 8.82006836 21.98413086 C11.52586838 21.96341986 14.23165177 21.95035875 16.9375 21.9375 C17.88302734 21.92912109 18.82855469 21.92074219 19.80273438 21.91210938 C21.15141602 21.90727539 21.15141602 21.90727539 22.52734375 21.90234375 C23.77632446 21.89448853 23.77632446 21.89448853 25.05053711 21.88647461 C27 22 27 22 28 23 C28.08857875 25.73870242 28.11530707 28.45274983 28.09765625 31.19140625 C28.09664917 31.91775269 28.09564209 32.64409912 28.09460449 33.39245605 C28.08935716 36.11582001 28.075396 38.83916153 28.0625 41.5625 C28.041875 47.646875 28.02125 53.73125 28 60 C9.52 60 -8.96 60 -28 60 C-28 47.32758621 -28 47.32758621 -27.625 42.9375 C-27.55539063 42.03902344 -27.48578125 41.14054687 -27.4140625 40.21484375 C-27 38 -27 38 -25 36 C-22.97786722 35.38943913 -20.93172022 34.85636005 -18.875 34.375 C-17.23144531 33.98441406 -17.23144531 33.98441406 -15.5546875 33.5859375 C-14.29011719 33.29589844 -14.29011719 33.29589844 -13 33 C-13.66 31.906875 -14.32 30.81375 -15 29.6875 C-16.58464929 27.06292462 -17 26.1743622 -17 23 C-17.639375 22.855625 -18.27875 22.71125 -18.9375 22.5625 C-21 22 -21 22 -22 21 C-21.7528371 18.62723612 -21.41410928 16.34516624 -21 14 C-20.88785156 13.24460937 -20.77570312 12.48921875 -20.66015625 11.7109375 C-19.72677433 6.39510522 -18.50854858 3.35519894 -14 0 C-9.67821496 -1.68069418 -4.42214467 -1.2830207 0 0 Z M-2 30 C-1.34 31.32 -0.68 32.64 0 34 C0.33 34 0.66 34 1 34 C1 32.35 1 30.7 1 29 C-0.2236068 28.9254644 -0.2236068 28.9254644 -2 30 Z " fill="#121C1F" transform="translate(32,4)"/>
<path d="M0 0 C7.59 0 15.18 0 23 0 C23 10.56 23 21.12 23 32 C15.41 32 7.82 32 0 32 C0 28.04 0 24.08 0 20 C0.33 20 0.66 20 1 20 C1.33 22.64 1.66 25.28 2 28 C3.65 28.33 5.3 28.66 7 29 C7 26.03 7 23.06 7 20 C7.33 20 7.66 20 8 20 C8 22.64 8 25.28 8 28 C12.62 28 17.24 28 22 28 C21.67 25.36 21.34 22.72 21 20 C19.02 19.67 17.04 19.34 15 19 C15 18.67 15 18.34 15 18 C16.98 17.67 18.96 17.34 21 17 C21 16.01 21 15.02 21 14 C14.4 13.67 7.8 13.34 1 13 C1 14.65 1 16.3 1 18 C0.67 18 0.34 18 0 18 C0 12.06 0 6.12 0 0 Z " fill="#EBF2FA" transform="translate(35,31)"/>
<path d="M0 0 C1.9375 2.5 1.9375 2.5 3 5 C3.66 5.33 4.32 5.66 5 6 C5.88671875 8.328125 5.88671875 8.328125 6.6875 11.25 C6.95949219 12.20390625 7.23148438 13.1578125 7.51171875 14.140625 C8 17 8 17 7 22 C13.6 22 20.2 22 27 22 C27 23.32 27 24.64 27 26 C26.505 24.515 26.505 24.515 26 23 C18.08 23.33 10.16 23.66 2 24 C2 23.34 2 22.68 2 22 C2.99 21.34 3.98 20.68 5 20 C4.42618522 16.67187429 3.40619252 15.30157545 1 13 C1 12.34 1 11.68 1 11 C-0.175625 11.5259375 -0.175625 11.5259375 -1.375 12.0625 C-6.25252278 13.3239283 -10.01767217 12.67328754 -15 12 C-15.33 15.3 -15.66 18.6 -16 22 C-16.33 22 -16.66 22 -17 22 C-17 19.69 -17 17.38 -17 15 C-20.16666667 16.83333333 -20.16666667 16.83333333 -22 20 C-21.69169075 17.99598989 -21.35036606 15.99708656 -21 14 C-20.88914062 13.26523437 -20.77828125 12.53046875 -20.6640625 11.7734375 C-19.71746864 6.43321931 -18.53471769 3.37467363 -14 0 C-9.67821496 -1.68069418 -4.42214467 -1.2830207 0 0 Z " fill="#161312" transform="translate(32,4)"/>
<path d="M0 0 C1.32 0.66 2.64 1.32 4 2 C4 8.27 4 14.54 4 21 C-1.61 21 -7.22 21 -13 21 C-13.04125 18.64875 -13.0825 16.2975 -13.125 13.875 C-13.14320801 13.14651855 -13.16141602 12.41803711 -13.18017578 11.66748047 C-13.21614063 7.3899839 -12.80101242 3.89439699 -11 0 C-6.68542476 -1.91758899 -3.98239808 -2.74648144 0 0 Z " fill="#6DD1F3" transform="translate(19,42)"/>
<path d="M0 0 C0.33 0 0.66 0 1 0 C1.33 4.29 1.66 8.58 2 13 C8.6 13 15.2 13 22 13 C23.25730733 18.02922932 23 22.8394849 23 28 C22.00097656 27.98839844 21.00195312 27.97679688 19.97265625 27.96484375 C18.68230469 27.95582031 17.39195313 27.94679688 16.0625 27.9375 C14.77472656 27.92589844 13.48695312 27.91429688 12.16015625 27.90234375 C9.13701597 27.63467451 9.13701597 27.63467451 8 29 C5.5 29.125 5.5 29.125 3 29 C2.67 28.67 2.34 28.34 2 28 C1.34 28.99 0.68 29.98 0 31 C0 20.77 0 10.54 0 0 Z " fill="#9CAB93" transform="translate(34,31)"/>
<path d="M0 0 C1.56692425 0.11803572 3.12955674 0.29506875 4.6875 0.5 C8.68445369 0.95302631 12.04830433 0.93592792 16 0 C16.12375 0.928125 16.12375 0.928125 16.25 1.875 C16.81258459 4.18437567 16.81258459 4.18437567 19.0625 5.25 C19.701875 5.4975 20.34125 5.745 21 6 C20.6875 7.9375 20.6875 7.9375 20 10 C19.01 10.33 18.02 10.66 17 11 C17 11.66 17 12.32 17 13 C17.66 13 18.32 13 19 13 C19 13.66 19 14.32 19 15 C14.65624015 17.29500237 11.16223031 18.98094704 6.1875 19.0625 C3 18 3 18 0.5625 16.1875 C-1.8330789 11.30051905 -1.50095815 6.35450349 -1 1 C-0.67 0.67 -0.34 0.34 0 0 Z " fill="#E5BFA5" transform="translate(17,15)"/>
<path d="M0 0 C3.31255326 -0.02683436 6.62489183 -0.0467578 9.9375 -0.0625 C10.88302734 -0.07087891 11.82855469 -0.07925781 12.80273438 -0.08789062 C14.15141602 -0.09272461 14.15141602 -0.09272461 15.52734375 -0.09765625 C16.77632446 -0.10551147 16.77632446 -0.10551147 18.05053711 -0.11352539 C20 0 20 0 21 1 C21.1328125 2.8125 21.1328125 2.8125 21.125 5 C21.12886719 6.0828125 21.12886719 6.0828125 21.1328125 7.1875 C21 9 21 9 20 10 C18.5112814 10.08669432 17.018555 10.10703494 15.52734375 10.09765625 C14.62822266 10.09443359 13.72910156 10.09121094 12.80273438 10.08789062 C11.85720703 10.07951172 10.91167969 10.07113281 9.9375 10.0625 C8.98810547 10.05798828 8.03871094 10.05347656 7.06054688 10.04882812 C4.70700469 10.03700128 2.35349468 10.01906521 0 10 C0 6.7 0 3.4 0 0 Z " fill="#6DD1F4" transform="translate(36,33)"/>
<path d="M0 0 C2.31 0 4.62 0 7 0 C6.67 1.65 6.34 3.3 6 5 C6.99 4.34 7.98 3.68 9 3 C9.99 3.66 10.98 4.32 12 5 C12.34057617 7.33837891 12.34057617 7.33837891 12.29296875 10.2265625 C12.28330078 11.2578125 12.27363281 12.2890625 12.26367188 13.3515625 C12.23853516 14.43179688 12.21339844 15.51203125 12.1875 16.625 C12.17396484 17.71296875 12.16042969 18.8009375 12.14648438 19.921875 C12.11104754 22.61507409 12.06164331 25.30729374 12 28 C10.02 28 8.04 28 6 28 C5.67 22.06 5.34 16.12 5 10 C4.67 15.94 4.34 21.88 4 28 C3.67 28 3.34 28 3 28 C2.98018066 27.3294458 2.96036133 26.6588916 2.93994141 25.96801758 C2.84440285 22.91579839 2.73484055 19.86423659 2.625 16.8125 C2.5940625 15.75740234 2.563125 14.70230469 2.53125 13.61523438 C2.49257813 12.59365234 2.45390625 11.57207031 2.4140625 10.51953125 C2.3826416 9.58214111 2.3512207 8.64475098 2.31884766 7.67895508 C1.97977169 4.83004192 1.17742543 2.60479556 0 0 Z " fill="#6DD2F4" transform="translate(21,35)"/>
<path d="M0 0 C1.31291016 -0.03867188 1.31291016 -0.03867188 2.65234375 -0.078125 C5.0625 0.25 5.0625 0.25 6.87890625 1.578125 C8.0625 3.25 8.0625 3.25 8.0625 6.25 C9.0525 6.58 10.0425 6.91 11.0625 7.25 C11.0625 9.23 11.0625 11.21 11.0625 13.25 C10.0725 11.93 9.0825 10.61 8.0625 9.25 C7.5675 9.415 7.0725 9.58 6.5625 9.75 C2.33468894 10.59556221 -2.09553075 10.79761248 -6.25 9.5625 C-6.806875 9.459375 -7.36375 9.35625 -7.9375 9.25 C-9.70940909 10.60444301 -9.70940909 10.60444301 -10.9375 12.25 C-11.29421933 8.41526716 -11.23521416 6.69657125 -9.0625 3.4375 C-6.00896744 0.29415765 -4.2718274 0.07527449 0 0 Z " fill="#56585B" transform="translate(24.9375,4.75)"/>
<path d="M0 0 C7.59 0 15.18 0 23 0 C24.1687481 3.5062443 24.12514267 6.6477866 24.09765625 10.29296875 C24.0962413 10.99899734 24.09482635 11.70502594 24.09336853 12.43244934 C24.08777764 14.68417626 24.07522688 16.93580321 24.0625 19.1875 C24.05748382 20.71549335 24.05292112 22.24348827 24.04882812 23.77148438 C24.0378112 27.51436135 24.02055287 31.25716373 24 35 C23.67 35 23.34 35 23 35 C23 24.77 23 14.54 23 4 C15.08 4 7.16 4 -1 4 C-1 6.31 -1 8.62 -1 11 C-1.66 9.68 -2.32 8.36 -3 7 C-3.66 7 -4.32 7 -5 7 C-4.67 6.01 -4.34 5.02 -4 4 C-2.35 3.67 -0.7 3.34 1 3 C0.67 2.01 0.34 1.02 0 0 Z " fill="#1E2D43" transform="translate(35,27)"/>
<path d="M0 0 C0.33 0 0.66 0 1 0 C1.33 2.64 1.66 5.28 2 8 C3.65 8.33 5.3 8.66 7 9 C7 6.03 7 3.06 7 0 C7.33 0 7.66 0 8 0 C8 2.64 8 5.28 8 8 C12.95 8 17.9 8 23 8 C23 9.32 23 10.64 23 12 C15.41 12 7.82 12 0 12 C0 8.04 0 4.08 0 0 Z " fill="#D1D8DF" transform="translate(35,51)"/>
<path d="M0 0 C3.31255326 -0.02683436 6.62489183 -0.0467578 9.9375 -0.0625 C10.88302734 -0.07087891 11.82855469 -0.07925781 12.80273438 -0.08789062 C14.15141602 -0.09272461 14.15141602 -0.09272461 15.52734375 -0.09765625 C16.77632446 -0.10551147 16.77632446 -0.10551147 18.05053711 -0.11352539 C20 0 20 0 21 1 C21.1328125 2.8125 21.1328125 2.8125 21.125 5 C21.12886719 6.0828125 21.12886719 6.0828125 21.1328125 7.1875 C21 9 21 9 20 10 C18.5112814 10.08669432 17.018555 10.10703494 15.52734375 10.09765625 C14.62822266 10.09443359 13.72910156 10.09121094 12.80273438 10.08789062 C11.85720703 10.07951172 10.91167969 10.07113281 9.9375 10.0625 C8.98810547 10.05798828 8.03871094 10.05347656 7.06054688 10.04882812 C4.70700469 10.03700128 2.35349468 10.01906521 0 10 C0 6.7 0 3.4 0 0 Z M1 2 C1 3.98 1 5.96 1 8 C6.94 8 12.88 8 19 8 C19 6.02 19 4.04 19 2 C13.06 2 7.12 2 1 2 Z " fill="#3C4F56" transform="translate(36,33)"/>
<path d="M0 0 C0 0.66 0 1.32 0 2 C-2.31 2.66 -4.62 3.32 -7 4 C-7.98143946 8.24740605 -8.30895588 12.4738151 -8.5625 16.8125 C-8.706875 19.184375 -8.85125 21.55625 -9 24 C-3.39 24 2.22 24 8 24 C8 24.33 8 24.66 8 25 C1.73 25 -4.54 25 -11 25 C-11.20219956 9.43063352 -11.20219956 9.43063352 -10 3 C-6.84916414 -0.15083586 -4.41812253 0 0 0 Z M8 1 C8.33 1 8.66 1 9 1 C9 8.59 9 16.18 9 24 C8.67 24 8.34 24 8 24 C7.80364026 20.54210946 7.61941748 17.08367803 7.4375 13.625 C7.38142578 12.64015625 7.32535156 11.6553125 7.26757812 10.640625 C7.19506836 9.22910156 7.19506836 9.22910156 7.12109375 7.7890625 C7.0739624 6.91975098 7.02683105 6.05043945 6.97827148 5.15478516 C7 3 7 3 8 1 Z " fill="#020202" transform="translate(15,39)"/>
<path d="M0 0 C0.66 0 1.32 0 2 0 C2.08636719 0.59167969 2.17273438 1.18335937 2.26171875 1.79296875 C3.23686048 7.2770227 4.2954242 10.57849033 9 14 C12.18150892 14.87989974 12.18150892 14.87989974 15 15 C15 15.33 15 15.66 15 16 C12.69 16 10.38 16 8 16 C8.33 16.556875 8.66 17.11375 9 17.6875 C10.1309601 20.30284522 10.15662974 22.1806646 10 25 C6.65750371 24.40312566 4.53563658 23.26396123 2 21 C2 20.34 2 19.68 2 19 C3.32 18.67 4.64 18.34 6 18 C5.34 16.906875 4.68 15.81375 4 14.6875 C2.41535071 12.06292462 2 11.1743622 2 8 C1.360625 7.87625 0.72125 7.7525 0.0625 7.625 C-0.618125 7.41875 -1.29875 7.2125 -2 7 C-2.33 6.34 -2.66 5.68 -3 5 C-1.6875 2.375 -1.6875 2.375 0 0 Z " fill="#414340" transform="translate(13,19)"/>
<path d="M0 0 C1.9375 0.8125 1.9375 0.8125 4 2 C4.33 2.99 4.66 3.98 5 5 C5.66 5.33 6.32 5.66 7 6 C7.88671875 8.328125 7.88671875 8.328125 8.6875 11.25 C8.95949219 12.20390625 9.23148438 13.1578125 9.51171875 14.140625 C10 17 10 17 9 22 C15.6 22 22.2 22 29 22 C29 23.32 29 24.64 29 26 C28.67 25.01 28.34 24.02 28 23 C20.08 23.33 12.16 23.66 4 24 C4 23.34 4 22.68 4 22 C4.99 21.34 5.98 20.68 7 20 C6.42655063 17.13275314 6.1385485 16.1385485 4 14 C4.66 14 5.32 14 6 14 C5.65772428 11.02934491 5.65772428 11.02934491 5 8 C4.34 7.67 3.68 7.34 3 7 C0 2.5 0 2.5 0 0 Z " fill="#030303" transform="translate(30,4)"/>
<path d="M0 0 C0.33 0 0.66 0 1 0 C1 2.31 1 4.62 1 7 C2.32 7 3.64 7 5 7 C5 4.69 5 2.38 5 0 C5.66 0 6.32 0 7 0 C7 4.95 7 9.9 7 15 C4.69 15 2.38 15 0 15 C0 10.05 0 5.1 0 0 Z " fill="#365965" transform="translate(6,48)"/>
<path d="M0 0 C2.31 0 4.62 0 7 0 C6.67 1.65 6.34 3.3 6 5 C6.99 4.34 7.98 3.68 9 3 C9.33 4.65 9.66 6.3 10 8 C8.35 8.66 6.7 9.32 5 10 C4.67 15.94 4.34 21.88 4 28 C3.67 28 3.34 28 3 28 C2.98018066 27.3294458 2.96036133 26.6588916 2.93994141 25.96801758 C2.84440285 22.91579839 2.73484055 19.86423659 2.625 16.8125 C2.5940625 15.75740234 2.563125 14.70230469 2.53125 13.61523438 C2.49257813 12.59365234 2.45390625 11.57207031 2.4140625 10.51953125 C2.3826416 9.58214111 2.3512207 8.64475098 2.31884766 7.67895508 C1.97977169 4.83004192 1.17742543 2.60479556 0 0 Z " fill="#6594A1" transform="translate(21,35)"/>
<path d="M0 0 C6.6 0 13.2 0 20 0 C20.33 1.32 20.66 2.64 21 4 C20 5 20 5 18.23413086 5.11352539 C17.48526611 5.10828857 16.73640137 5.10305176 15.96484375 5.09765625 C15.15595703 5.09443359 14.34707031 5.09121094 13.51367188 5.08789062 C12.66353516 5.07951172 11.81339844 5.07113281 10.9375 5.0625 C10.08349609 5.05798828 9.22949219 5.05347656 8.34960938 5.04882812 C6.23304337 5.03700373 4.11651315 5.01906769 2 5 C2 4.67 2 4.34 2 4 C7.61 4 13.22 4 19 4 C19 3.34 19 2.68 19 2 C13.06 2 7.12 2 1 2 C0.67 2.66 0.34 3.32 0 4 C0 2.68 0 1.36 0 0 Z " fill="#474E43" transform="translate(36,44)"/>
<path d="M0 0 C1.98 0 3.96 0 6 0 C6 2.97 6 5.94 6 9 C4.33388095 9.042721 2.66617115 9.04063832 1 9 C0 8 0 8 -0.09765625 6.15234375 C-0.06510417 4.1015625 -0.03255208 2.05078125 0 0 Z " fill="#3D3728" transform="translate(36,51)"/>
<path d="M0 0 C1.98 0 3.96 0 6 0 C6 2.64 6 5.28 6 8 C4.02 8 2.04 8 0 8 C0 5.36 0 2.72 0 0 Z " fill="#382E29" transform="translate(43,51)"/>
<path d="M0 0 C1.98 0 3.96 0 6 0 C6 2.64 6 5.28 6 8 C4.02 8 2.04 8 0 8 C0 5.36 0 2.72 0 0 Z " fill="#3C2E31" transform="translate(51,51)"/>
<path d="M0 0 C0.33 0.66 0.66 1.32 1 2 C3.01669827 3.13350534 3.01669827 3.13350534 5 4 C4.6875 5.9375 4.6875 5.9375 4 8 C3.01 8.33 2.02 8.66 1 9 C1 9.66 1 10.32 1 11 C1.66 11 2.32 11 3 11 C3 11.66 3 12.32 3 13 C1.68 13.33 0.36 13.66 -1 14 C-0.67 9.38 -0.34 4.76 0 0 Z " fill="#7C6C64" transform="translate(33,17)"/>
<path d="M0 0 C1.65 0 3.3 0 5 0 C5 1.98 5 3.96 5 6 C3.35 6 1.7 6 0 6 C0 4.02 0 2.04 0 0 Z " fill="#EDC6AB" transform="translate(6,57)"/>
<path d="M0 0 C0 0.66 0 1.32 0 2 C-2.31 2.66 -4.62 3.32 -7 4 C-7.33 5.65 -7.66 7.3 -8 9 C-8.66 9 -9.32 9 -10 9 C-10.125 6.125 -10.125 6.125 -10 3 C-6.84916414 -0.15083586 -4.41812253 0 0 0 Z " fill="#0C171B" transform="translate(15,39)"/>
<path d="M0 0 C2.24606427 1.77444972 2.95081002 2.58352485 3.29296875 5.48046875 C3.25816406 6.37378906 3.22335938 7.26710938 3.1875 8.1875 C3.16042969 9.08855469 3.13335938 9.98960938 3.10546875 10.91796875 C3.07066406 11.60503906 3.03585938 12.29210938 3 13 C2.67 13 2.34 13 2 13 C2 10.69 2 8.38 2 6 C-1.16666667 7.83333333 -1.16666667 7.83333333 -3 11 C-2.44894091 7.0507432 -1.61064629 3.65079826 0 0 Z " fill="#090909" transform="translate(13,13)"/>
<path d="M0 0 C2.31 0 4.62 0 7 0 C6.67 1.32 6.34 2.64 6 4 C4.68 4.33 3.36 4.66 2 5 C1.34 3.35 0.68 1.7 0 0 Z " fill="#DAB69E" transform="translate(21,35)"/>
<path d="M0 0 C0.99 0 1.98 0 3 0 C3 1.98 3 3.96 3 6 C2.01 6 1.02 6 0 6 C0 4.02 0 2.04 0 0 Z " fill="#FC657E" transform="translate(52,52)"/>
<path d="M0 0 C0.99 0 1.98 0 3 0 C3 1.98 3 3.96 3 6 C2.01 6 1.02 6 0 6 C0 4.02 0 2.04 0 0 Z " fill="#FCA265" transform="translate(45,52)"/>
<path d="M0 0 C0.99 0 1.98 0 3 0 C3 1.98 3 3.96 3 6 C2.01 6 1.02 6 0 6 C0 4.02 0 2.04 0 0 Z " fill="#E7BC47" transform="translate(38,52)"/>
<path d="M0 0 C0.99 0.66 1.98 1.32 3 2 C2.67 3.32 2.34 4.64 2 6 C1.34 6 0.68 6 0 6 C0 5.34 0 4.68 0 4 C-0.66 4 -1.32 4 -2 4 C-2 3.34 -2 2.68 -2 2 C-1.34 2 -0.68 2 0 2 C0 1.34 0 0.68 0 0 Z " fill="#6FD4F8" transform="translate(8,29)"/>
<path d="M0 0 C1.32 1.32 2.64 2.64 4 4 C2.02 4.99 2.02 4.99 0 6 C0 5.34 0 4.68 0 4 C-0.66 4 -1.32 4 -2 4 C-2 3.34 -2 2.68 -2 2 C-1.34 2 -0.68 2 0 2 C0 1.34 0 0.68 0 0 Z " fill="#F6CD49" transform="translate(42,14)"/>
<path d="M0 0 C0.99 0.33 1.98 0.66 3 1 C2.67 1.99 2.34 2.98 2 4 C1.34 4 0.68 4 0 4 C-0.33 3.01 -0.66 2.02 -1 1 C-0.67 0.67 -0.34 0.34 0 0 Z " fill="#FC596C" transform="translate(16,0)"/>
<path d="M0 0 C0.66 0 1.32 0 2 0 C2 0.99 2 1.98 2 3 C1.01 3 0.02 3 -1 3 C-0.67 2.01 -0.34 1.02 0 0 Z " fill="#85DC53" transform="translate(45,22)"/>
<path d="M0 0 C0.66 0 1.32 0 2 0 C2 0.99 2 1.98 2 3 C1.34 3 0.68 3 0 3 C0 2.01 0 1.02 0 0 Z " fill="#F5C44A" transform="translate(4,37)"/>
</svg>
