<?xml version="1.0" standalone="no"?>
<!DOCTYPE svg PUBLIC "-//W3C//DTD SVG 20010904//EN"
 "http://www.w3.org/TR/2001/REC-SVG-20010904/DTD/svg10.dtd">
<svg version="1.0" xmlns="http://www.w3.org/2000/svg"
 width="512.000000pt" height="512.000000pt" viewBox="0 0 512.000000 512.000000"
 preserveAspectRatio="xMidYMid meet">

<g transform="translate(0.000000,512.000000) scale(0.100000,-0.100000)"
fill="#000000" stroke="none">
<path d="M2505 5096 c-56 -26 -88 -70 -92 -128 -8 -107 58 -168 183 -168 264
0 599 -72 857 -183 268 -115 485 -262 693 -471 191 -191 324 -378 434 -608 51
-106 124 -298 114 -298 -3 0 -229 125 -502 278 -274 154 -527 295 -563 315
l-66 37 20 -58 c24 -70 19 -156 -12 -226 -16 -37 -113 -141 -451 -483 -276
-279 -429 -440 -426 -449 3 -8 196 -272 428 -587 233 -314 434 -594 448 -622
35 -70 39 -161 10 -239 -73 -192 -303 -265 -476 -151 -44 28 -110 113 -449
572 -219 296 -406 547 -416 558 -19 19 -19 19 -64 -25 l-44 -43 -3 -441 c-3
-439 -3 -441 -27 -493 -26 -59 -103 -136 -159 -160 -20 -9 -72 -19 -115 -22
l-79 -6 548 -325 c624 -370 590 -336 349 -347 -1007 -45 -1937 619 -2229 1592
-218 724 -53 1515 435 2088 98 115 119 149 119 197 0 109 -122 186 -218 136
-99 -51 -351 -397 -476 -650 -180 -369 -260 -715 -259 -1131 1 -227 14 -350
58 -550 200 -906 898 -1643 1793 -1896 432 -121 890 -126 1332 -14 858 218
1559 901 1806 1759 168 585 123 1229 -126 1789 -184 413 -510 794 -900 1050
-227 149 -567 291 -840 351 -232 51 -577 79 -635 52z"/>
<path d="M1850 4998 c-142 -73 -93 -283 67 -283 58 0 93 20 131 76 19 27 23
43 19 82 -10 113 -119 176 -217 125z"/>
<path d="M1249 4738 c-52 -30 -83 -88 -76 -145 17 -153 220 -187 287 -48 64
133 -83 268 -211 193z"/>
<path d="M2072 3903 c58 -116 53 -73 58 -496 l5 -387 254 254 254 254 -288
192 c-158 105 -285 188 -283 183z"/>
</g>
</svg>
