<?xml version="1.0" encoding="UTF-8"?>
<svg version="1.1" xmlns="http://www.w3.org/2000/svg" width="96" height="96">
<path d="M0 0 C6.1341565 5.0254288 8.21958201 10.22767391 9 18 C10.65 18.33 12.3 18.66 14 19 C14.625 21.3125 14.625 21.3125 15 24 C14.34 24.99 13.68 25.98 13 27 C13 27.845625 13 28.69125 13 29.5625 C13 30.366875 13 31.17125 13 32 C11 34 11 34 8.375 34.125 C7.59125 34.08375 6.8075 34.0425 6 34 C5.979375 34.825 5.95875 35.65 5.9375 36.5 C4.62880587 41.38579143 1.80220299 44.70160858 -2 48 C-4.23046875 48.73046875 -4.23046875 48.73046875 -6 49 C-6 50.32 -6 51.64 -6 53 C-5.06148193 52.98428955 -5.06148193 52.98428955 -4.10400391 52.96826172 C-1.2777099 52.92676809 1.54852011 52.90069527 4.375 52.875 C5.35984375 52.85824219 6.3446875 52.84148438 7.359375 52.82421875 C8.77089844 52.81455078 8.77089844 52.81455078 10.2109375 52.8046875 C11.08024902 52.79421387 11.94956055 52.78374023 12.84521484 52.77294922 C15 53 15 53 17 55 C17.08984375 56.93359375 17.08984375 56.93359375 16.9375 59.4375 C16.79329725 65.84179857 17.81555398 71.90360619 18.93334961 78.18530273 C19.06878174 78.96462158 19.20421387 79.74394043 19.34375 80.546875 C19.53227539 81.58086426 19.53227539 81.58086426 19.72460938 82.63574219 C20.0859092 85.73753963 20 88.87723121 20 92 C-1.45 92 -22.9 92 -45 92 C-43.68 83.42 -42.36 74.84 -41 66 C-41 62.37 -41 58.74 -41 55 C-39 53 -39 53 -36.93701172 52.77294922 C-36.10959473 52.78342285 -35.28217773 52.79389648 -34.4296875 52.8046875 C-33.53378906 52.81113281 -32.63789062 52.81757812 -31.71484375 52.82421875 C-30.77769531 52.84097656 -29.84054688 52.85773437 -28.875 52.875 C-27.93011719 52.88402344 -26.98523438 52.89304688 -26.01171875 52.90234375 C-23.67422708 52.92595478 -21.33723877 52.95888484 -19 53 C-19.29084238 51.0582563 -19.29084238 51.0582563 -20 49 C-21.97946592 47.63636792 -23.9819245 46.30581356 -26 45 C-29.43739487 41.46970256 -30.54420068 38.89984267 -31 34 C-32.175625 34.0928125 -32.175625 34.0928125 -33.375 34.1875 C-34.24125 34.125625 -35.1075 34.06375 -36 34 C-38 31 -38 31 -37.625 28.3125 C-37.315625 27.1678125 -37.315625 27.1678125 -37 26 C-35.68 25.67 -34.36 25.34 -33 25 C-33.03480469 24.29875 -33.06960937 23.5975 -33.10546875 22.875 C-33.31190959 15.63974012 -33.23353526 9.61185175 -28.23046875 4.0234375 C-20.17428576 -3.4628052 -9.79769188 -5.80821255 0 0 Z " fill="#DAEBFD" transform="translate(71,3)"/>
<path d="M0 0 C6.1341565 5.0254288 8.21958201 10.22767391 9 18 C10.65 18.33 12.3 18.66 14 19 C14.625 21.375 14.625 21.375 15 24 C12.32154592 26.67845408 10.29080844 26.23832278 6.65055847 26.25224304 C5.77974136 26.24505753 4.90892426 26.23787201 4.01171875 26.23046875 C3.11636917 26.23001053 2.22101959 26.22955231 1.29853821 26.2290802 C-0.59875815 26.22605549 -2.49605198 26.2181627 -4.39331055 26.20581055 C-7.29029196 26.1876393 -10.18695211 26.1853003 -13.08398438 26.18554688 C-14.92708608 26.18062825 -16.77018563 26.17479844 -18.61328125 26.16796875 C-19.91039787 26.16629951 -19.91039787 26.16629951 -21.23371887 26.16459656 C-25.2835507 26.13285606 -29.04892314 26.01083439 -33 25 C-33.38818299 17.17883166 -33.69605077 10.12848056 -28.23046875 4.0234375 C-20.17428576 -3.4628052 -9.79769188 -5.80821255 0 0 Z " fill="#FE585A" transform="translate(71,3)"/>
<path d="M0 0 C1.17111328 -0.01224609 2.34222656 -0.02449219 3.54882812 -0.03710938 C4.66580078 -0.03904297 5.78277344 -0.04097656 6.93359375 -0.04296875 C7.96411865 -0.04707764 8.99464355 -0.05118652 10.05639648 -0.05541992 C12.5625 0.1875 12.5625 0.1875 14.5625 2.1875 C14.81787109 4.53833008 14.81787109 4.53833008 14.8359375 7.45703125 C14.8565625 8.51083984 14.8771875 9.56464844 14.8984375 10.65039062 C14.92434162 12.87166855 14.94265285 15.09304885 14.953125 17.31445312 C15.09361343 25.0431375 15.09361343 25.0431375 19.5625 31.1875 C19.5625 32.1775 19.5625 33.1675 19.5625 34.1875 C8.6725 34.1875 -2.2175 34.1875 -13.4375 34.1875 C-13.458125 28.763125 -13.47875 23.33875 -13.5 17.75 C-13.509104 16.03627197 -13.51820801 14.32254395 -13.52758789 12.55688477 C-13.53050716 11.20589273 -13.53305569 9.85489981 -13.53515625 8.50390625 C-13.54027222 7.79649292 -13.54538818 7.08907959 -13.55065918 6.36022949 C-13.55097032 4.63557383 -13.49975761 2.91103162 -13.4375 1.1875 C-10.84794843 -1.40205157 -3.48572397 0.00191208 0 0 Z " fill="#6BA5FF" transform="translate(14.4375,14.8125)"/>
<path d="M0 0 C0.84747803 0.0169693 1.69495605 0.0339386 2.56811523 0.05142212 C4.00465454 0.07672501 4.00465454 0.07672501 5.47021484 0.10253906 C7.03267944 0.13838608 7.03267944 0.13838608 8.62670898 0.17495728 C10.21914429 0.20681625 10.21914429 0.20681625 11.84375 0.23931885 C14.09339609 0.28567326 16.34299023 0.33460862 18.5925293 0.38589478 C22.0491233 0.46368029 25.50580972 0.53082827 28.96264648 0.59683228 C31.14234766 0.64306703 33.3220358 0.68992115 35.50170898 0.73745728 C36.54335205 0.75730682 37.58499512 0.77715637 38.65820312 0.79760742 C40.09474243 0.83236679 40.09474243 0.83236679 41.56030273 0.86782837 C42.40778076 0.88638885 43.25525879 0.90494934 44.12841797 0.92407227 C46.06420898 1.08901978 46.06420898 1.08901978 47.06420898 2.08901978 C47.25170898 4.52651978 47.25170898 4.52651978 47.06420898 7.08901978 C45.06420898 9.08901978 45.06420898 9.08901978 42.43920898 9.21401978 C41.65545898 9.17276978 40.87170898 9.13151978 40.06420898 9.08901978 C40.04358398 9.91401978 40.02295898 10.73901978 40.00170898 11.58901978 C38.69301485 16.47481121 35.86641198 19.79062836 32.06420898 23.08901978 C29.83374023 23.81948853 29.83374023 23.81948853 28.06420898 24.08901978 C28.06420898 25.73901978 28.06420898 27.38901978 28.06420898 29.08901978 C23.77420898 29.08901978 19.48420898 29.08901978 15.06420898 29.08901978 C14.56920898 26.61401978 14.56920898 26.61401978 14.06420898 24.08901978 C12.10530018 22.69601796 10.10029719 21.36656531 8.06420898 20.08901978 C4.62681411 16.55872234 3.5200083 13.98886245 3.06420898 9.08901978 C1.88858398 9.18183228 1.88858398 9.18183228 0.68920898 9.27651978 C-0.61016602 9.18370728 -0.61016602 9.18370728 -1.93579102 9.08901978 C-3.93579102 6.08901978 -3.93579102 6.08901978 -3.62329102 3.46401978 C-2.65590333 0.12213504 -2.65590333 0.12213504 0 0 Z " fill="#FEDCBA" transform="translate(36.935791015625,27.910980224609375)"/>
<path d="M0 0 C0.33 0 0.66 0 1 0 C1.33965474 2.18652739 1.67142477 4.37428025 2 6.5625 C2.185625 7.78066406 2.37125 8.99882813 2.5625 10.25390625 C3 14 3 14 3 21 C19.5 21 36 21 53 21 C53 18.36 53 15.72 53 13 C53.28241883 10.6599583 53.61250787 8.32495277 54 6 C54.2784375 4.2984375 54.2784375 4.2984375 54.5625 2.5625 C54.706875 1.716875 54.85125 0.87125 55 0 C55.66 0.33 56.32 0.66 57 1 C57.50244141 2.74658203 57.50244141 2.74658203 57.8515625 5.0078125 C57.98046875 5.83023438 58.109375 6.65265625 58.2421875 7.5 C58.36851563 8.36625 58.49484375 9.2325 58.625 10.125 C58.7590625 10.96804687 58.893125 11.81109375 59.03125 12.6796875 C59.78134377 17.60887512 60 21.92030478 60 27 C38.55 27 17.1 27 -5 27 C-1 1 -1 1 0 0 Z " fill="#B5C0FA" transform="translate(31,68)"/>
<path d="M0 0 C2.1796875 0.15234375 2.1796875 0.15234375 4.1796875 2.15234375 C3.62413194 6.70789931 3.62413194 6.70789931 2.1796875 8.15234375 C-0.85009054 8.24105648 -3.85698272 8.26753725 -6.88671875 8.25 C-7.79534164 8.24858505 -8.70396454 8.2471701 -9.64012146 8.24571228 C-12.55438471 8.24009568 -15.46857231 8.2275404 -18.3828125 8.21484375 C-20.35351452 8.20983089 -22.32421774 8.20526761 -24.29492188 8.20117188 C-29.13674809 8.19012086 -33.97851745 8.17284513 -38.8203125 8.15234375 C-38.8203125 5.84234375 -38.8203125 3.53234375 -38.8203125 1.15234375 C-38.4903125 1.81234375 -38.1603125 2.47234375 -37.8203125 3.15234375 C-34.1903125 3.15234375 -30.5603125 3.15234375 -26.8203125 3.15234375 C-26.4903125 4.14234375 -26.1603125 5.13234375 -25.8203125 6.15234375 C-24.8921875 5.51296875 -23.9640625 4.87359375 -23.0078125 4.21484375 C-18.5381869 1.32273307 -15.18192764 0.93858239 -9.9453125 0.58984375 C-8.12386719 0.46416016 -8.12386719 0.46416016 -6.265625 0.3359375 C-4.17704682 0.22464138 -2.08849676 0.11281354 0 0 Z " fill="#FF985E" transform="translate(81.8203125,20.84765625)"/>
<path d="M0 0 C0.84747803 0.0169693 1.69495605 0.0339386 2.56811523 0.05142212 C4.00465454 0.07672501 4.00465454 0.07672501 5.47021484 0.10253906 C7.03267944 0.13838608 7.03267944 0.13838608 8.62670898 0.17495728 C10.21914429 0.20681625 10.21914429 0.20681625 11.84375 0.23931885 C14.09339609 0.28567326 16.34299023 0.33460862 18.5925293 0.38589478 C22.0491233 0.46368029 25.50580972 0.53082827 28.96264648 0.59683228 C31.14234766 0.64306703 33.3220358 0.68992115 35.50170898 0.73745728 C36.54335205 0.75730682 37.58499512 0.77715637 38.65820312 0.79760742 C40.09474243 0.83236679 40.09474243 0.83236679 41.56030273 0.86782837 C42.40778076 0.88638885 43.25525879 0.90494934 44.12841797 0.92407227 C46.06420898 1.08901978 46.06420898 1.08901978 47.06420898 2.08901978 C47.25170898 4.52651978 47.25170898 4.52651978 47.06420898 7.08901978 C45.06420898 9.08901978 45.06420898 9.08901978 42.43920898 9.21401978 C41.65545898 9.17276978 40.87170898 9.13151978 40.06420898 9.08901978 C40.06420898 7.10901978 40.06420898 5.12901978 40.06420898 3.08901978 C38.08420898 3.08901978 36.10420898 3.08901978 34.06420898 3.08901978 C34.06420898 4.07901978 34.06420898 5.06901978 34.06420898 6.08901978 C33.40420898 6.08901978 32.74420898 6.08901978 32.06420898 6.08901978 C32.06420898 7.07901978 32.06420898 8.06901978 32.06420898 9.08901978 C31.40420898 9.08901978 30.74420898 9.08901978 30.06420898 9.08901978 C29.40420898 7.10901978 28.74420898 5.12901978 28.06420898 3.08901978 C24.10420898 3.08901978 20.14420898 3.08901978 16.06420898 3.08901978 C15.73420898 4.07901978 15.40420898 5.06901978 15.06420898 6.08901978 C14.40420898 6.08901978 13.74420898 6.08901978 13.06420898 6.08901978 C13.06420898 7.07901978 13.06420898 8.06901978 13.06420898 9.08901978 C12.40420898 9.08901978 11.74420898 9.08901978 11.06420898 9.08901978 C10.40420898 7.10901978 9.74420898 5.12901978 9.06420898 3.08901978 C7.41420898 3.08901978 5.76420898 3.08901978 4.06420898 3.08901978 C4.06420898 5.06901978 4.06420898 7.04901978 4.06420898 9.08901978 C1.18920898 9.27651978 1.18920898 9.27651978 -1.93579102 9.08901978 C-3.93579102 6.08901978 -3.93579102 6.08901978 -3.62329102 3.46401978 C-2.65590333 0.12213504 -2.65590333 0.12213504 0 0 Z " fill="#FFC09D" transform="translate(36.935791015625,27.910980224609375)"/>
<path d="M0 0 C4.14255705 1.93072748 8.05105594 4.4703408 11 8 C11 8.99 11 9.98 11 11 C8.81874079 11.5094551 6.63612887 12.00174212 4.4453125 12.46875 C2.39115162 12.91502137 0.34976858 13.41955036 -1.6875 13.9375 C-5 14 -5 14 -8.25 11.6875 C-9.1575 10.800625 -10.065 9.91375 -11 9 C-11.99 8.34 -12.98 7.68 -14 7 C-13.70049983 4.1048317 -13.19065168 3.16176506 -10.9375 1.25 C-7.1764434 -0.35044962 -3.97995882 -0.79745498 0 0 Z " fill="#FF867B" transform="translate(63,6)"/>
<path d="M0 0 C2.29296875 0.109375 2.29296875 0.109375 5 1 C6.80078125 3.765625 6.80078125 3.765625 8.3125 7.25 C8.82425781 8.38953125 9.33601563 9.5290625 9.86328125 10.703125 C10.91894647 13.76491692 11.34380742 15.80667009 11 19 C10 20 10 20 6.4375 20.0625 C5.303125 20.041875 4.16875 20.02125 3 20 C1.28878246 15.47849025 0.64776388 11.44382847 0.375 6.625 C0.30023438 5.37976563 0.22546875 4.13453125 0.1484375 2.8515625 C0.09945312 1.91054687 0.05046875 0.96953125 0 0 Z " fill="#FCFDFF" transform="translate(37,63)"/>
<path d="M0 0 C0.33 0 0.66 0 1 0 C2.53140195 9.12004552 3.27675737 17.74400342 3 27 C0.36 27 -2.28 27 -5 27 C-4.36081301 22.68648722 -3.71254479 18.37438877 -3.0625 14.0625 C-2.78889648 12.21495117 -2.78889648 12.21495117 -2.50976562 10.33007812 C-2.33251953 9.16025391 -2.15527344 7.99042969 -1.97265625 6.78515625 C-1.72914429 5.15912476 -1.72914429 5.15912476 -1.48071289 3.50024414 C-1 1 -1 1 0 0 Z " fill="#FEAC5A" transform="translate(31,68)"/>
<path d="M0 0 C0.66 0.33 1.32 0.66 2 1 C2.50244141 2.74658203 2.50244141 2.74658203 2.8515625 5.0078125 C2.98046875 5.83023438 3.109375 6.65265625 3.2421875 7.5 C3.36851563 8.36625 3.49484375 9.2325 3.625 10.125 C3.7590625 10.96804687 3.893125 11.81109375 4.03125 12.6796875 C4.76644941 17.51099791 5.14562777 22.11485015 5 27 C2.69 27 0.38 27 -2 27 C-2.24908976 17.76984056 -1.68944836 9.08078495 0 0 Z " fill="#FEAD5A" transform="translate(86,68)"/>
<path d="M0 0 C4.62 0 9.24 0 14 0 C15.06126775 4.24507101 15.08878929 5.31975221 13 9 C11.21484375 9.84765625 11.21484375 9.84765625 9 10 C6.640625 8.671875 6.640625 8.671875 4.25 6.75 C3.45078125 6.12609375 2.6515625 5.5021875 1.828125 4.859375 C0 3 0 3 0 0 Z " fill="#FDFEFF" transform="translate(66,63)"/>
<path d="M0 0 C0 3.96 0 7.92 0 12 C-3.375 12.125 -3.375 12.125 -7 12 C-9.32528287 9.67471713 -9.29511025 9.15334102 -9.3125 6 C-9.32925781 5.29875 -9.34601562 4.5975 -9.36328125 3.875 C-9.24339844 3.25625 -9.12351563 2.6375 -9 2 C-6 0 -6 0 0 0 Z " fill="#5E5BA4" transform="translate(62,67)"/>
<path d="M0 0 C12.21 0 24.42 0 37 0 C37 0.33 37 0.66 37 1 C35.02 1 33.04 1 31 1 C31 1.99 31 2.98 31 4 C30.34 4 29.68 4 29 4 C29 4.99 29 5.98 29 7 C28.34 7 27.68 7 27 7 C26.34 5.02 25.68 3.04 25 1 C21.04 1 17.08 1 13 1 C12.67 1.99 12.34 2.98 12 4 C11.34 4 10.68 4 10 4 C10 4.99 10 5.98 10 7 C9.34 7 8.68 7 8 7 C7.34 5.02 6.68 3.04 6 1 C4.35 1 2.7 1 1 1 C1 2.98 1 4.96 1 7 C0.67 7 0.34 7 0 7 C0 4.69 0 2.38 0 0 Z " fill="#FED5B3" transform="translate(40,30)"/>
<path d="M0 0 C0.33 0.66 0.66 1.32 1 2 C4.63 2 8.26 2 12 2 C12 3.65 12 5.3 12 7 C8.04 7 4.08 7 0 7 C0 4.69 0 2.38 0 0 Z " fill="#F28663" transform="translate(43,22)"/>
<path d="M0 0 C4.29 0 8.58 0 13 0 C13 1.65 13 3.3 13 5 C8.71 5 4.42 5 0 5 C0 3.35 0 1.7 0 0 Z " fill="#FCC2A3" transform="translate(52,52)"/>
<path d="M0 0 C2.97 0 5.94 0 9 0 C9 1.98 9 3.96 9 6 C6.03 6 3.06 6 0 6 C0 4.02 0 2.04 0 0 Z " fill="#6A5F9D" transform="translate(75,89)"/>
<path d="M0 0 C2.97 0 5.94 0 9 0 C9 1.98 9 3.96 9 6 C6.03 6 3.06 6 0 6 C0 4.02 0 2.04 0 0 Z " fill="#68609F" transform="translate(34,89)"/>
<path d="M0 0 C3 0.0625 3 0.0625 6 1 C6.66 2.65 7.32 4.3 8 6 C4.37 6 0.74 6 -3 6 C-2 2 -2 2 0 0 Z " fill="#61559D" transform="translate(47,18)"/>
<path d="M0 0 C0.66 0 1.32 0 2 0 C1.34 2.64 0.68 5.28 0 8 C0.66 8 1.32 8 2 8 C2 8.66 2 9.32 2 10 C0.68 9.67 -0.64 9.34 -2 9 C-2.6875 6.75 -2.6875 6.75 -3 4 C-1.6875 1.6875 -1.6875 1.6875 0 0 Z " fill="#E2EDFF" transform="translate(9,33)"/>
<path d="M0 0 C2.97851562 0.43945312 2.97851562 0.43945312 5.95703125 0.87890625 C8.2025342 1.13904799 8.2025342 1.13904799 11 0 C10.34 1.32 9.68 2.64 9 4 C6.69 4 4.38 4 2 4 C1.34 2.68 0.68 1.36 0 0 Z " fill="#FFC3A1" transform="translate(53,44)"/>
<path d="M0 0 C2.47128202 0.9566253 3.72986449 1.45972898 4.9375 3.875 C5 6 5 6 3.6875 8.25 C3.130625 8.8275 2.57375 9.405 2 10 C1.34 10 0.68 10 0 10 C0 9.34 0 8.68 0 8 C0.66 8 1.32 8 2 8 C1.34 5.36 0.68 2.72 0 0 Z " fill="#E5EFFF" transform="translate(17,33)"/>
<path d="M0 0 C1.98 0 3.96 0 6 0 C6 0.99 6 1.98 6 3 C5.34 3 4.68 3 4 3 C4 3.99 4 4.98 4 6 C3.34 6 2.68 6 2 6 C1.34 4.02 0.68 2.04 0 0 Z " fill="#91828B" transform="translate(65,31)"/>
<path d="M0 0 C1.98 0 3.96 0 6 0 C6 0.99 6 1.98 6 3 C5.34 3 4.68 3 4 3 C4 3.99 4 4.98 4 6 C3.34 6 2.68 6 2 6 C1.34 4.02 0.68 2.04 0 0 Z " fill="#93848C" transform="translate(46,31)"/>
</svg>
